<?xml version="1.0" encoding="UTF-8"?>
<svg width="1024px" height="1024px" viewBox="0 0 1024 1024" version="1.1" xmlns="http://www.w3.org/2000/svg" xmlns:xlink="http://www.w3.org/1999/xlink">
    <title>3 - Layer</title>
    <g id="Template---App-Icons" stroke="none" stroke-width="1" fill="none" fill-rule="evenodd">
        <g id="3---Layer" fill="#000000" fill-rule="nonzero">
            <path d="M513.085628,143.028486 C308.719355,143.028486 143,308.390471 143,512.351163 C143.049379,557.083556 151.240953,601.434895 167.175731,643.244931 C172.598858,629.087324 178.821183,615.271551 186.641904,602.281876 C190.637892,595.673094 195.03348,589.263714 197.944843,582.142182 C200.884749,575.020649 202.226259,566.959075 199.999923,559.581167 C198.575739,555.417452 196.452322,551.525824 193.720512,548.07277 C191.094577,544.568976 188.240299,541.236099 185.871249,537.532902 C179.722845,528.099393 177.142495,516.788584 178.592841,505.628436 C180.169748,494.440805 186.122021,484.331781 195.147651,477.512626 C203.139628,471.587511 213.272314,468.966787 223.262285,469.30862 C226.591556,469.435867 229.899835,469.893908 233.138085,470.675955 C246.03942,473.809429 257.45653,481.871004 265.905192,492.040552 C276.408933,504.773852 282.574173,520.811544 284.08694,537.219555 C285.431691,553.692778 282.737696,570.245075 276.237676,585.446573 C264.820566,612.650827 243.413485,634.585147 231.568233,661.589999 C221.920775,683.66675 219.152125,708.25028 220.43655,732.32106 C220.63635,734.514492 220.95032,736.73641 221.15012,738.986814 C249.617653,775.360294 284.664398,806.086114 324.474967,829.572708 C322.034549,809.629575 320.795468,789.558256 320.764406,769.466974 C320.821492,753.514741 321.62069,737.562508 323.190542,721.752706 C313.485999,715.029979 304.637738,707.224779 298.358328,697.254634 C287.16956,679.593233 285.057394,657.146162 289.652781,636.750093 C294.219625,616.325538 305.06588,597.724095 318.109928,581.34457 C339.786622,554.248451 367.492268,532.566821 399.028697,518.019903 C398.163419,516.829923 397.307112,515.633472 396.459847,514.430651 C384.930571,495.655793 378.060996,474.404327 376.422819,452.444831 C374.710252,430.311108 378.249556,408.177385 379.705238,386.072148 C380.761321,370.60418 380.846949,355.164697 381.703232,339.725215 C382.787858,321.864411 384.957109,303.975121 389.980637,286.797985 C391.624968,280.479739 394.182605,274.434198 397.573016,268.851723 C401.708637,262.456362 407.591708,257.375727 414.527424,254.209852 C422.348145,251.13335 429.08424,250.449683 436.676618,251.731559 C442.956029,253.041921 448.807298,256.175395 453.916455,260.106481 C459.054154,264.037567 463.478284,268.766264 467.616987,273.694365 C479.503829,287.674763 489.485248,303.163151 497.301473,319.756437 C507.610878,318.167087 518.103694,318.167087 528.413099,319.756437 C536.228291,303.171338 546.209897,287.692238 558.097585,273.722851 C562.173508,268.734396 566.765811,264.189401 571.798118,260.163453 C576.935817,256.175395 582.730001,253.098893 589.037954,251.760045 C596.53194,250.206653 604.326448,251.064342 611.301319,254.209852 C618.257017,257.397059 624.150975,262.508201 628.284271,268.937181 C631.823575,274.349546 634.049911,280.559522 635.876649,286.769499 C640.871635,303.918149 643.069428,321.807439 644.154054,339.639756 C645.010337,355.107725 645.095965,370.60418 646.152048,386.015176 C647.579187,408.148899 651.147034,430.282622 649.46301,452.387859 C647.80669,474.373948 640.907353,495.646197 629.340353,514.430651 C628.48407,515.854957 627.342359,517.165319 626.400447,518.561139 C633.450513,526.480284 643.469027,533.174524 652.03186,536.051623 C661.720214,539.190131 672.084288,539.623574 682.001774,537.305013 C687.413415,536.070649 692.563776,533.891152 697.215074,530.867148 C701.868195,527.830992 705.748033,523.754031 708.546556,518.959945 C711.914603,512.977858 713.284656,506.141187 714.026768,499.389974 C715.939134,482.013435 714.026768,464.522951 712.59963,447.117925 C711.629175,435.837418 710.829978,424.329021 713.370285,413.304889 C715.082851,405.898495 718.422356,398.549073 724.01674,393.364598 C727.785122,389.904857 732.340194,387.411871 737.289131,386.100634 C742.220663,384.790003 747.368576,384.49919 752.416802,385.246051 C763.263056,386.86976 773.424285,393.05125 779.475353,402.166812 C782.900486,407.294315 785.012651,413.276403 786.268534,419.372434 C787.524416,425.43998 787.9811,431.62147 788.323613,437.831447 C789.465324,459.480906 789.465324,481.187337 788.837383,502.893768 C788.323613,521.837044 787.267531,541.293071 779.703695,558.641125 C769.913523,580.917278 750.247551,597.553178 729.040268,609.517353 C714.739065,617.478058 699.517926,623.667311 683.714341,627.947879 C697.471959,671.816519 704.636195,720.242941 704.636195,769.466974 C704.577064,789.70377 703.290285,809.91843 700.782921,830 C813.53332,763.713215 882.818235,642.921869 883,512.322677 C883,308.361985 717.280645,143 512.942914,143 L513.085628,143.028486 Z M409,598.028531 L409,640.339515 C420.147213,640.495349 430.970188,644.104586 439.970759,650.667618 C446.84835,655.669682 452.323208,662.349976 455.870797,670.068474 C459.359655,677.771755 460.617931,686.50214 459.188072,694.833096 C457.87833,702.288299 454.601163,709.2607 449.693804,715.03281 C444.781508,720.781421 438.552446,725.263742 431.534587,728.099857 C424.403754,730.982394 416.699511,732.17392 409.028597,731.580599 L409.028597,838 L631,717.942939 L409.028597,598 L409,598.028531 Z" id="Voctocat"></path>
        </g>
    </g>
</svg>